<svg width="12" height="7" viewBox="0 0 12 7" fill="none" xmlns="http://www.w3.org/2000/svg">
<path d="M6.00039 0.6666C5.80568 0.666219 5.61698 0.734032 5.46706 0.858266L0.467059 5.02493C0.296879 5.16638 0.189858 5.36964 0.169542 5.59C0.149225 5.81035 0.217277 6.02975 0.358726 6.19993C0.500175 6.37011 0.703434 6.47713 0.923789 6.49745C1.14414 6.51777 1.36354 6.44972 1.53373 6.30827L6.00039 2.57493L10.4671 6.17493C10.5523 6.24415 10.6504 6.29585 10.7557 6.32704C10.8609 6.35823 10.9714 6.36831 11.0805 6.3567C11.1897 6.34508 11.2956 6.312 11.3919 6.25935C11.4883 6.20671 11.5733 6.13554 11.6421 6.04993C11.7184 5.96425 11.7762 5.86373 11.8118 5.75467C11.8475 5.6456 11.8602 5.53035 11.8493 5.41613C11.8383 5.30191 11.8039 5.19119 11.7482 5.09089C11.6924 4.99059 11.6166 4.90289 11.5254 4.83327L6.52539 0.808267C6.37116 0.70367 6.18631 0.653791 6.00039 0.6666Z" fill="white"/>
</svg>
